# xmcd
#
# Track frame offsets: 
#        150
#        12092
#        23495
#        32522
#        44548
#        54634
#        65622
#        78494
#        92495
#        102807
#        116160
#        124456
#        134988
#        146600
#        159413
#        169273
#        182086
#
# Disc length: 2558 seconds
#
# Revision: 0
# Processed by: cddbd v1.5.2PL0 Copyright (c) Steve Scherf et al.
# Submitted via: ExactAudioCopy v1.3
#
DISCID=eb09fc11
DTITLE=Porter and Dolly  - Duets
DYEAR=1900
DGENRE=Country
TTITLE0=The Last Thing On My Mind
TTITLE1=Holding On to Nothin
TTITLE2=We'll Get Ahead Someday
TTITLE3=Always, Always
TTITLE4=I Don't Believe You've Met My Baby
TTITLE5=Just Someone I Used to Know
TTITLE6=Tomorrow Is Forever
TTITLE7=Daddy Was an Old Time Preacher Man
TTITLE8=Better Move It on Home
TTITLE9=The Right Combination
TTITLE10=Burning the Midnight Oil
TTITLE11=Together Always
TTITLE12=We Found It
TTITLE13=Say Forever You'll Be Mine
TTITLE14=If Teardrops Were Pennies
TTITLE15=Please Don't Stop Loving Me
TTITLE16=Making Plans
EXTD=
EXTT0=
EXTT1=
EXTT2=
EXTT3=
EXTT4=
EXTT5=
EXTT6=
EXTT7=
EXTT8=
EXTT9=
EXTT10=
EXTT11=
EXTT12=
EXTT13=
EXTT14=
EXTT15=
EXTT16=
PLAYORDER=
